<?xml version="1.0" standalone="no"?>
<!DOCTYPE svg PUBLIC "-//W3C//DTD SVG 20010904//EN"
 "http://www.w3.org/TR/2001/REC-SVG-20010904/DTD/svg10.dtd">
<svg version="1.0" xmlns="http://www.w3.org/2000/svg"
 width="400.000000pt" height="400.000000pt" viewBox="0 0 400.000000 400.000000"
 preserveAspectRatio="xMidYMid meet">
<metadata>
Created by potrace 1.11, written by Peter Selinger 2001-2013
</metadata>
<g transform="translate(0.000000,400.000000) scale(0.100000,-0.100000)"
fill="#000000" stroke="none">
<path d="M2310 2699 c-44 -18 -55 -54 -75 -251 -29 -304 -39 -584 -26 -785 7
-103 18 -199 24 -213 21 -44 50 -51 198 -48 98 2 141 7 153 17 30 25 1 40 -82
43 l-77 3 -5 590 c-5 544 -6 593 -23 618 -9 15 -21 27 -26 27 -5 0 -15 2 -23
4 -7 3 -24 0 -38 -5z"/>
<path d="M3458 2683 c-9 -10 -46 -99 -83 -198 -58 -156 -85 -217 -85 -193 0 4
-11 67 -25 140 -26 145 -47 212 -72 240 -19 21 -81 24 -107 5 -31 -23 -25
-138 29 -532 8 -60 22 -149 31 -196 l16 -85 -46 -150 c-25 -82 -56 -181 -70
-221 -21 -61 -22 -74 -10 -84 30 -25 57 12 103 142 25 68 47 128 51 132 4 4
21 -43 39 -105 18 -62 39 -128 47 -146 17 -42 68 -65 123 -56 39 6 81 35 81
55 0 5 -18 81 -39 167 -22 86 -56 232 -76 325 -36 160 -37 169 -22 210 129
360 156 440 167 485 6 29 9 59 6 67 -7 20 -39 19 -58 -2z"/>
<path d="M1237 2665 c-34 -33 -34 -317 -1 -635 l17 -155 -56 -175 c-90 -280
-92 -300 -39 -300 23 0 32 7 49 43 11 24 31 79 43 123 32 113 36 117 50 48 19
-98 40 -153 67 -174 29 -22 70 -26 107 -8 40 18 42 62 11 222 -38 197 -65 365
-65 406 0 36 6 54 95 280 108 275 114 300 71 300 -21 0 -28 -10 -51 -72 -50
-134 -123 -302 -131 -305 -5 -2 -10 25 -12 60 -7 160 -35 310 -63 338 -23 23
-72 25 -92 4z"/>
<path d="M2667 2643 c-38 -43 -71 -278 -83 -588 -14 -350 37 -555 151 -606
143 -65 188 11 245 416 16 113 20 196 20 423 0 290 -4 322 -39 322 -15 0 -19
-11 -25 -69 -3 -38 -3 -115 0 -172 8 -126 -10 -431 -32 -554 -19 -112 -73
-280 -85 -268 -22 22 -32 175 -36 612 -5 437 -6 464 -24 482 -24 24 -71 25
-92 2z"/>
<path d="M705 2640 c3 -5 0 -7 -8 -4 -59 22 -112 -402 -88 -713 14 -176 33
-268 73 -356 35 -76 86 -128 143 -147 46 -15 121 -6 147 17 62 56 154 647 160
1028 l3 160 -30 0 -30 0 -7 -210 c-4 -115 -14 -264 -23 -330 -21 -155 -77
-414 -105 -489 -22 -58 -23 -59 -36 -35 -18 36 -52 174 -70 287 -9 60 -17 199
-20 367 -6 340 -10 391 -35 416 -19 19 -85 28 -74 9z"/>
<path d="M1755 2319 c-84 -44 -127 -105 -140 -195 -10 -74 10 -129 65 -184
111 -113 258 -125 366 -32 58 49 79 165 49 267 -34 119 -97 164 -225 165 -58
0 -85 -5 -115 -21z m-5 -120 c0 -15 -4 -19 -16 -15 -9 3 -18 6 -20 6 -2 0 -4
7 -4 15 0 8 9 15 20 15 14 0 20 -7 20 -21z m228 -44 c7 -21 12 -66 10 -100 -3
-52 -6 -60 -24 -63 -16 -2 -23 5 -32 36 -7 22 -12 55 -13 73 l-1 34 -13 -35
c-7 -19 -14 -48 -14 -63 -1 -34 -29 -47 -47 -22 -20 27 -38 125 -26 137 7 7
15 3 24 -11 18 -29 21 -27 42 20 16 36 21 40 49 37 27 -3 34 -9 45 -43z m-192
-48 c7 -21 17 -60 22 -88 8 -43 7 -51 -8 -59 -32 -17 -60 17 -72 91 -13 77 -7
102 24 97 14 -2 25 -15 34 -41z"/>
</g>
</svg>
